<?xml version="1.0" encoding="UTF-8" standalone="no"?>
<!DOCTYPE svg PUBLIC "-//W3C//DTD SVG 1.1//EN" "http://www.w3.org/Graphics/SVG/1.1/DTD/svg11.dtd">
<svg width="100%" height="100%" viewBox="0 0 1000 1000" version="1.1" xmlns="http://www.w3.org/2000/svg" xmlns:xlink="http://www.w3.org/1999/xlink" xml:space="preserve" xmlns:serif="http://www.serif.com/" style="fill-rule:evenodd;clip-rule:evenodd;stroke-linecap:round;stroke-linejoin:round;stroke-miterlimit:1.5;">
    <g id="background" transform="matrix(2.55244,0,0,4.32801,-163.658,-2704.97)">
        <rect x="64.118" y="624.991" width="391.782" height="231.053" style="fill:white;"/>
    </g>
    <path id="axis-j" serif:id="axis j" d="M100.992,899.008L724.671,275.329" style="fill:none;stroke:rgb(0,180,216);stroke-width:25px;"/>
    <g id="axis-i" serif:id="axis i" transform="matrix(0.72073,0,0,0.72073,28.2041,251.066)">
        <path d="M113.256,911.272L88.728,886.744L101.721,873.751L126.249,898.279L113.256,911.272ZM152.236,872.291L127.709,847.764L153.695,821.777L178.223,846.305L152.236,872.291ZM204.209,820.318L179.682,795.791L205.669,769.804L230.196,794.331L204.209,820.318ZM256.182,768.345L231.655,743.818L257.642,717.831L282.169,742.358L256.182,768.345ZM308.156,716.372L283.628,691.844L309.615,665.858L334.142,690.385L308.156,716.372ZM360.129,664.398L335.602,639.871L361.588,613.884L386.116,638.412L360.129,664.398ZM412.102,612.425L387.575,587.898L413.562,561.911L438.089,586.438L412.102,612.425ZM464.076,560.452L439.548,535.924L465.535,509.938L490.062,534.465L464.076,560.452ZM516.049,508.479L491.521,483.951L517.508,457.965L542.035,482.492L516.049,508.479ZM568.021,456.506L543.494,431.979L569.48,405.992L594.008,430.52L568.021,456.506ZM619.995,404.532L595.468,380.005L621.454,354.018L645.982,378.546L619.995,404.532ZM671.968,352.559L647.441,328.032L673.427,302.045L697.955,326.573L671.968,352.559ZM723.942,300.586L699.414,276.058L712.407,263.065L736.935,287.593L723.942,300.586Z" style="fill:rgb(202,240,248);"/>
    </g>
    <path id="hyp1" d="M100.992,0L1000,899.008" style="fill:none;stroke:rgb(144,224,239);stroke-width:25px;stroke-linecap:butt;"/>
    <g id="axis1">
        <g transform="matrix(1,0,0,1,-58.6498,0)">
            <path d="M159.642,0L159.642,1000" style="fill:none;stroke:rgb(144,224,239);stroke-width:25px;stroke-linecap:butt;"/>
        </g>
        <g transform="matrix(1,0,0,1,1.42109e-14,58.6498)">
            <path d="M1000,840.358L0,840.358" style="fill:none;stroke:rgb(144,224,239);stroke-width:25px;stroke-linecap:butt;"/>
        </g>
    </g>
    <path id="hyp2" d="M100.992,0L724.671,276.554" style="fill:none;stroke:rgb(0,119,182);stroke-width:25px;"/>
    <g id="circle" transform="matrix(0.899008,0,0,0.899008,100.992,0)">
        <path d="M0,0C551.915,0 1000,448.085 1000,1000C1000,1551.91 551.915,2000 0,2000C-551.915,2000 -1000,1551.91 -1000,1000C-1000,448.085 -551.915,0 0,0ZM0,27.808C-536.567,27.808 -972.192,463.433 -972.192,1000C-972.192,1536.57 -536.567,1972.19 0,1972.19C536.567,1972.19 972.192,1536.57 972.192,1000C972.192,463.433 536.567,27.808 0,27.808Z" style="fill:rgb(3,4,94);"/>
    </g>
    <g id="text">
        <g transform="matrix(0.644943,0,0,0.644943,114.756,337.779)">
            <g transform="matrix(38.7631,0,0,38.7631,481.334,935.258)">
                <path d="M0.39,-0C0.351,-0 0.317,-0.008 0.288,-0.025C0.259,-0.041 0.236,-0.064 0.22,-0.093C0.203,-0.122 0.195,-0.156 0.195,-0.195L0.195,-0.595L0.025,-0.595L0.025,-0.73L0.345,-0.73L0.345,-0.195C0.345,-0.177 0.351,-0.163 0.362,-0.152C0.373,-0.14 0.387,-0.135 0.405,-0.135L0.565,-0.135L0.565,-0L0.39,-0Z" style="fill-rule:nonzero;"/>
            </g>
            <g transform="matrix(38.7631,0,0,38.7631,504.591,935.258)">
                <path d="M0.301,0.01C0.252,0.01 0.21,0.001 0.174,-0.018C0.137,-0.036 0.109,-0.062 0.09,-0.095C0.07,-0.128 0.06,-0.166 0.06,-0.21L0.06,-0.34C0.06,-0.384 0.07,-0.423 0.09,-0.456C0.109,-0.489 0.137,-0.514 0.174,-0.533C0.21,-0.551 0.252,-0.56 0.301,-0.56C0.35,-0.56 0.392,-0.551 0.428,-0.533C0.463,-0.514 0.491,-0.489 0.511,-0.456C0.53,-0.423 0.54,-0.384 0.54,-0.34L0.54,-0.24L0.203,-0.24L0.203,-0.21C0.203,-0.175 0.211,-0.149 0.228,-0.132C0.245,-0.114 0.27,-0.105 0.303,-0.105C0.326,-0.105 0.345,-0.109 0.36,-0.117C0.374,-0.125 0.383,-0.136 0.388,-0.15L0.535,-0.15C0.523,-0.102 0.496,-0.063 0.454,-0.034C0.411,-0.005 0.36,0.01 0.301,0.01ZM0.397,-0.317L0.397,-0.342C0.397,-0.376 0.389,-0.402 0.374,-0.42C0.358,-0.438 0.334,-0.447 0.301,-0.447C0.268,-0.447 0.244,-0.438 0.228,-0.419C0.211,-0.4 0.203,-0.374 0.203,-0.34L0.203,-0.325L0.407,-0.327L0.397,-0.317Z" style="fill-rule:nonzero;"/>
            </g>
            <g transform="matrix(38.7631,0,0,38.7631,527.849,935.258)">
                <path d="M0.066,-0L0.066,-0.55L0.211,-0.55L0.211,-0.445L0.255,-0.445L0.211,-0.41C0.211,-0.457 0.224,-0.493 0.251,-0.52C0.278,-0.547 0.314,-0.56 0.359,-0.56C0.412,-0.56 0.455,-0.541 0.488,-0.504C0.52,-0.467 0.536,-0.417 0.536,-0.355L0.536,-0L0.386,-0L0.386,-0.34C0.386,-0.369 0.379,-0.391 0.364,-0.407C0.349,-0.422 0.327,-0.43 0.3,-0.43C0.273,-0.43 0.253,-0.422 0.238,-0.407C0.223,-0.391 0.216,-0.369 0.216,-0.34L0.216,-0L0.066,-0Z" style="fill-rule:nonzero;"/>
            </g>
            <g transform="matrix(38.7631,0,0,38.7631,551.106,935.258)">
                <path d="M0.145,0.18L0.145,0.06L0.3,0.06C0.328,0.06 0.349,0.053 0.365,0.039C0.38,0.025 0.387,0.006 0.387,-0.019L0.387,-0.04L0.389,-0.145L0.354,-0.145L0.389,-0.18C0.389,-0.133 0.376,-0.096 0.35,-0.07C0.324,-0.043 0.288,-0.03 0.243,-0.03C0.188,-0.03 0.143,-0.049 0.11,-0.088C0.077,-0.127 0.06,-0.179 0.06,-0.245L0.06,-0.345C0.06,-0.41 0.077,-0.463 0.11,-0.502C0.143,-0.541 0.188,-0.56 0.243,-0.56C0.288,-0.56 0.324,-0.547 0.35,-0.521C0.376,-0.494 0.389,-0.457 0.389,-0.41L0.354,-0.445L0.389,-0.445L0.384,-0.55L0.534,-0.55L0.534,-0.014C0.534,0.046 0.514,0.093 0.473,0.128C0.432,0.163 0.376,0.18 0.305,0.18L0.145,0.18ZM0.297,-0.16C0.324,-0.16 0.346,-0.168 0.361,-0.184C0.376,-0.199 0.384,-0.221 0.384,-0.25L0.384,-0.34C0.384,-0.369 0.376,-0.391 0.361,-0.407C0.346,-0.422 0.324,-0.43 0.297,-0.43C0.269,-0.43 0.248,-0.422 0.233,-0.407C0.218,-0.391 0.21,-0.369 0.21,-0.34L0.21,-0.25C0.21,-0.221 0.218,-0.199 0.233,-0.184C0.248,-0.168 0.269,-0.16 0.297,-0.16Z" style="fill-rule:nonzero;"/>
            </g>
            <g transform="matrix(38.7631,0,0,38.7631,574.364,935.258)">
                <path d="M0.36,-0C0.304,-0 0.26,-0.016 0.228,-0.048C0.196,-0.08 0.18,-0.124 0.18,-0.18L0.18,-0.415L0.035,-0.415L0.035,-0.55L0.18,-0.55L0.18,-0.705L0.33,-0.705L0.33,-0.55L0.535,-0.55L0.535,-0.415L0.33,-0.415L0.33,-0.18C0.33,-0.15 0.345,-0.135 0.375,-0.135L0.525,-0.135L0.525,-0L0.36,-0Z" style="fill-rule:nonzero;"/>
            </g>
            <g transform="matrix(38.7631,0,0,38.7631,597.622,935.258)">
                <path d="M0.066,-0L0.066,-0.73L0.216,-0.73L0.216,-0.55L0.211,-0.445L0.255,-0.445L0.211,-0.41C0.211,-0.457 0.224,-0.493 0.251,-0.52C0.278,-0.547 0.314,-0.56 0.359,-0.56C0.412,-0.56 0.455,-0.541 0.488,-0.504C0.52,-0.467 0.536,-0.417 0.536,-0.355L0.536,-0L0.386,-0L0.386,-0.34C0.386,-0.369 0.379,-0.391 0.364,-0.407C0.349,-0.422 0.327,-0.43 0.3,-0.43C0.273,-0.43 0.253,-0.422 0.238,-0.407C0.223,-0.391 0.216,-0.369 0.216,-0.34L0.216,-0L0.066,-0Z" style="fill-rule:nonzero;"/>
            </g>
            <g transform="matrix(38.7631,0,0,38.7631,620.879,935.258)">
            </g>
            <g transform="matrix(38.7631,0,0,38.7631,644.137,935.258)">
                <path d="M0.08,-0.385L0.08,-0.525L0.52,-0.525L0.52,-0.385L0.08,-0.385ZM0.08,-0.135L0.08,-0.275L0.52,-0.275L0.52,-0.135L0.08,-0.135Z" style="fill-rule:nonzero;"/>
            </g>
            <g transform="matrix(38.7631,0,0,38.7631,667.394,935.258)">
            </g>
            <g transform="matrix(38.7631,0,0,38.7631,690.652,935.258)">
                <path d="M0.08,-0L0.08,-0.13L0.264,-0.13L0.264,-0.593L0.078,-0.455L0.078,-0.61L0.249,-0.73L0.414,-0.73L0.414,-0.13L0.56,-0.13L0.56,-0L0.08,-0Z" style="fill-rule:nonzero;"/>
            </g>
            <g transform="matrix(38.7631,0,0,38.7631,713.909,935.258)">
            </g>
        </g>
        <g transform="matrix(0.456043,0.456043,-0.456043,0.456043,873.601,-9.29872)">
            <g transform="matrix(38.7631,0,0,38.7631,481.334,935.258)">
                <path d="M0.066,-0L0.066,-0.73L0.216,-0.73L0.216,-0.55L0.211,-0.445L0.255,-0.445L0.211,-0.41C0.211,-0.457 0.224,-0.493 0.251,-0.52C0.278,-0.547 0.314,-0.56 0.359,-0.56C0.412,-0.56 0.455,-0.541 0.488,-0.504C0.52,-0.467 0.536,-0.417 0.536,-0.355L0.536,-0L0.386,-0L0.386,-0.34C0.386,-0.369 0.379,-0.391 0.364,-0.407C0.349,-0.422 0.327,-0.43 0.3,-0.43C0.273,-0.43 0.253,-0.422 0.238,-0.407C0.223,-0.391 0.216,-0.369 0.216,-0.34L0.216,-0L0.066,-0Z" style="fill-rule:nonzero;"/>
            </g>
            <g transform="matrix(38.7631,0,0,38.7631,504.591,935.258)">
                <path d="M0.157,0.18L0.232,-0.027L0.026,-0.55L0.189,-0.55L0.272,-0.31C0.278,-0.292 0.284,-0.27 0.291,-0.245C0.297,-0.219 0.302,-0.198 0.305,-0.182C0.308,-0.198 0.313,-0.219 0.32,-0.245C0.326,-0.27 0.332,-0.292 0.338,-0.31L0.418,-0.55L0.574,-0.55L0.314,0.18L0.157,0.18Z" style="fill-rule:nonzero;"/>
            </g>
            <g transform="matrix(38.7631,0,0,38.7631,527.849,935.258)">
                <path d="M0.066,0.18L0.066,-0.55L0.211,-0.55L0.211,-0.445L0.246,-0.445L0.211,-0.41C0.211,-0.457 0.224,-0.494 0.25,-0.521C0.276,-0.547 0.312,-0.56 0.357,-0.56C0.412,-0.56 0.457,-0.541 0.49,-0.502C0.523,-0.463 0.54,-0.41 0.54,-0.345L0.54,-0.205C0.54,-0.162 0.533,-0.124 0.518,-0.092C0.502,-0.059 0.481,-0.034 0.454,-0.017C0.427,0.001 0.394,0.01 0.357,0.01C0.312,0.01 0.276,-0.003 0.25,-0.03C0.224,-0.056 0.211,-0.093 0.211,-0.14L0.246,-0.105L0.211,-0.105L0.216,0.03L0.216,0.18L0.066,0.18ZM0.303,-0.12C0.331,-0.12 0.353,-0.128 0.368,-0.144C0.383,-0.159 0.39,-0.181 0.39,-0.21L0.39,-0.34C0.39,-0.369 0.383,-0.392 0.368,-0.407C0.353,-0.422 0.331,-0.43 0.303,-0.43C0.276,-0.43 0.254,-0.422 0.239,-0.407C0.224,-0.391 0.216,-0.369 0.216,-0.34L0.216,-0.21C0.216,-0.181 0.224,-0.159 0.239,-0.144C0.254,-0.128 0.276,-0.12 0.303,-0.12Z" style="fill-rule:nonzero;"/>
            </g>
            <g transform="matrix(38.7631,0,0,38.7631,551.106,935.258)">
                <path d="M0.3,0.01C0.251,0.01 0.209,0.001 0.173,-0.018C0.137,-0.036 0.109,-0.062 0.09,-0.095C0.07,-0.128 0.06,-0.166 0.06,-0.21L0.06,-0.34C0.06,-0.384 0.07,-0.423 0.09,-0.456C0.109,-0.489 0.137,-0.514 0.173,-0.533C0.209,-0.551 0.251,-0.56 0.3,-0.56C0.349,-0.56 0.392,-0.551 0.428,-0.533C0.463,-0.514 0.491,-0.489 0.511,-0.456C0.53,-0.423 0.54,-0.384 0.54,-0.34L0.54,-0.21C0.54,-0.166 0.53,-0.128 0.511,-0.095C0.491,-0.062 0.463,-0.036 0.428,-0.018C0.392,0.001 0.349,0.01 0.3,0.01ZM0.3,-0.12C0.329,-0.12 0.352,-0.128 0.367,-0.144C0.382,-0.159 0.39,-0.181 0.39,-0.21L0.39,-0.34C0.39,-0.369 0.382,-0.392 0.367,-0.407C0.352,-0.422 0.329,-0.43 0.3,-0.43C0.271,-0.43 0.249,-0.422 0.234,-0.407C0.218,-0.392 0.21,-0.369 0.21,-0.34L0.21,-0.21C0.21,-0.181 0.218,-0.159 0.234,-0.144C0.249,-0.128 0.271,-0.12 0.3,-0.12Z" style="fill-rule:nonzero;"/>
            </g>
            <g transform="matrix(38.7631,0,0,38.7631,574.364,935.258)">
                <path d="M0.36,-0C0.304,-0 0.26,-0.016 0.228,-0.048C0.196,-0.08 0.18,-0.124 0.18,-0.18L0.18,-0.415L0.035,-0.415L0.035,-0.55L0.18,-0.55L0.18,-0.705L0.33,-0.705L0.33,-0.55L0.535,-0.55L0.535,-0.415L0.33,-0.415L0.33,-0.18C0.33,-0.15 0.345,-0.135 0.375,-0.135L0.525,-0.135L0.525,-0L0.36,-0Z" style="fill-rule:nonzero;"/>
            </g>
            <g transform="matrix(38.7631,0,0,38.7631,597.622,935.258)">
                <path d="M0.301,0.01C0.252,0.01 0.21,0.001 0.174,-0.018C0.137,-0.036 0.109,-0.062 0.09,-0.095C0.07,-0.128 0.06,-0.166 0.06,-0.21L0.06,-0.34C0.06,-0.384 0.07,-0.423 0.09,-0.456C0.109,-0.489 0.137,-0.514 0.174,-0.533C0.21,-0.551 0.252,-0.56 0.301,-0.56C0.35,-0.56 0.392,-0.551 0.428,-0.533C0.463,-0.514 0.491,-0.489 0.511,-0.456C0.53,-0.423 0.54,-0.384 0.54,-0.34L0.54,-0.24L0.203,-0.24L0.203,-0.21C0.203,-0.175 0.211,-0.149 0.228,-0.132C0.245,-0.114 0.27,-0.105 0.303,-0.105C0.326,-0.105 0.345,-0.109 0.36,-0.117C0.374,-0.125 0.383,-0.136 0.388,-0.15L0.535,-0.15C0.523,-0.102 0.496,-0.063 0.454,-0.034C0.411,-0.005 0.36,0.01 0.301,0.01ZM0.397,-0.317L0.397,-0.342C0.397,-0.376 0.389,-0.402 0.374,-0.42C0.358,-0.438 0.334,-0.447 0.301,-0.447C0.268,-0.447 0.244,-0.438 0.228,-0.419C0.211,-0.4 0.203,-0.374 0.203,-0.34L0.203,-0.325L0.407,-0.327L0.397,-0.317Z" style="fill-rule:nonzero;"/>
            </g>
            <g transform="matrix(38.7631,0,0,38.7631,620.879,935.258)">
                <path d="M0.066,-0L0.066,-0.55L0.211,-0.55L0.211,-0.445L0.255,-0.445L0.211,-0.41C0.211,-0.457 0.224,-0.493 0.251,-0.52C0.278,-0.547 0.314,-0.56 0.359,-0.56C0.412,-0.56 0.455,-0.541 0.488,-0.504C0.52,-0.467 0.536,-0.417 0.536,-0.355L0.536,-0L0.386,-0L0.386,-0.34C0.386,-0.369 0.379,-0.391 0.364,-0.407C0.349,-0.422 0.327,-0.43 0.3,-0.43C0.273,-0.43 0.253,-0.422 0.238,-0.407C0.223,-0.391 0.216,-0.369 0.216,-0.34L0.216,-0L0.066,-0Z" style="fill-rule:nonzero;"/>
            </g>
            <g transform="matrix(38.7631,0,0,38.7631,644.137,935.258)">
                <path d="M0.3,0.01C0.226,0.01 0.168,-0.01 0.127,-0.05C0.085,-0.09 0.064,-0.145 0.064,-0.214L0.064,-0.55L0.214,-0.55L0.214,-0.215C0.214,-0.184 0.221,-0.161 0.236,-0.145C0.251,-0.128 0.272,-0.12 0.3,-0.12C0.327,-0.12 0.349,-0.128 0.364,-0.145C0.379,-0.161 0.386,-0.184 0.386,-0.215L0.386,-0.55L0.536,-0.55L0.536,-0.214C0.536,-0.144 0.515,-0.089 0.473,-0.05C0.431,-0.01 0.373,0.01 0.3,0.01Z" style="fill-rule:nonzero;"/>
            </g>
            <g transform="matrix(38.7631,0,0,38.7631,667.394,935.258)">
                <path d="M0.277,0.01C0.232,0.01 0.192,0.003 0.158,-0.012C0.124,-0.026 0.097,-0.046 0.079,-0.071C0.059,-0.096 0.05,-0.126 0.05,-0.16L0.2,-0.16C0.2,-0.144 0.207,-0.131 0.222,-0.122C0.236,-0.112 0.254,-0.107 0.277,-0.107L0.321,-0.107C0.348,-0.107 0.369,-0.112 0.384,-0.122C0.398,-0.132 0.405,-0.146 0.405,-0.164C0.405,-0.181 0.399,-0.194 0.386,-0.203C0.373,-0.212 0.354,-0.218 0.327,-0.221L0.263,-0.229C0.194,-0.238 0.144,-0.254 0.113,-0.279C0.082,-0.304 0.066,-0.341 0.066,-0.392C0.066,-0.445 0.084,-0.487 0.121,-0.516C0.158,-0.545 0.211,-0.56 0.282,-0.56L0.32,-0.56C0.387,-0.56 0.441,-0.545 0.481,-0.516C0.521,-0.487 0.541,-0.447 0.541,-0.398L0.391,-0.398C0.391,-0.411 0.385,-0.422 0.372,-0.431C0.359,-0.439 0.341,-0.443 0.32,-0.443L0.282,-0.443C0.257,-0.443 0.239,-0.439 0.228,-0.431C0.217,-0.422 0.211,-0.41 0.211,-0.393C0.211,-0.378 0.216,-0.366 0.227,-0.358C0.237,-0.35 0.253,-0.344 0.276,-0.341L0.345,-0.332C0.414,-0.323 0.466,-0.306 0.5,-0.28C0.533,-0.254 0.55,-0.215 0.55,-0.164C0.55,-0.108 0.531,-0.065 0.492,-0.035C0.453,-0.005 0.396,0.01 0.321,0.01L0.277,0.01Z" style="fill-rule:nonzero;"/>
            </g>
            <g transform="matrix(38.7631,0,0,38.7631,690.652,935.258)">
                <path d="M0.301,0.01C0.252,0.01 0.21,0.001 0.174,-0.018C0.137,-0.036 0.109,-0.062 0.09,-0.095C0.07,-0.128 0.06,-0.166 0.06,-0.21L0.06,-0.34C0.06,-0.384 0.07,-0.423 0.09,-0.456C0.109,-0.489 0.137,-0.514 0.174,-0.533C0.21,-0.551 0.252,-0.56 0.301,-0.56C0.35,-0.56 0.392,-0.551 0.428,-0.533C0.463,-0.514 0.491,-0.489 0.511,-0.456C0.53,-0.423 0.54,-0.384 0.54,-0.34L0.54,-0.24L0.203,-0.24L0.203,-0.21C0.203,-0.175 0.211,-0.149 0.228,-0.132C0.245,-0.114 0.27,-0.105 0.303,-0.105C0.326,-0.105 0.345,-0.109 0.36,-0.117C0.374,-0.125 0.383,-0.136 0.388,-0.15L0.535,-0.15C0.523,-0.102 0.496,-0.063 0.454,-0.034C0.411,-0.005 0.36,0.01 0.301,0.01ZM0.397,-0.317L0.397,-0.342C0.397,-0.376 0.389,-0.402 0.374,-0.42C0.358,-0.438 0.334,-0.447 0.301,-0.447C0.268,-0.447 0.244,-0.438 0.228,-0.419C0.211,-0.4 0.203,-0.374 0.203,-0.34L0.203,-0.325L0.407,-0.327L0.397,-0.317Z" style="fill-rule:nonzero;"/>
            </g>
            <g transform="matrix(38.7631,0,0,38.7631,713.909,935.258)">
            </g>
        </g>
        <g transform="matrix(0.456043,-0.456043,0.456043,0.456043,-282.022,491.481)">
            <g transform="matrix(38.7631,0,0,38.7631,481.334,935.258)">
                <path d="M0.277,0.01C0.232,0.01 0.192,0.003 0.158,-0.012C0.124,-0.026 0.097,-0.046 0.079,-0.071C0.059,-0.096 0.05,-0.126 0.05,-0.16L0.2,-0.16C0.2,-0.144 0.207,-0.131 0.222,-0.122C0.236,-0.112 0.254,-0.107 0.277,-0.107L0.321,-0.107C0.348,-0.107 0.369,-0.112 0.384,-0.122C0.398,-0.132 0.405,-0.146 0.405,-0.164C0.405,-0.181 0.399,-0.194 0.386,-0.203C0.373,-0.212 0.354,-0.218 0.327,-0.221L0.263,-0.229C0.194,-0.238 0.144,-0.254 0.113,-0.279C0.082,-0.304 0.066,-0.341 0.066,-0.392C0.066,-0.445 0.084,-0.487 0.121,-0.516C0.158,-0.545 0.211,-0.56 0.282,-0.56L0.32,-0.56C0.387,-0.56 0.441,-0.545 0.481,-0.516C0.521,-0.487 0.541,-0.447 0.541,-0.398L0.391,-0.398C0.391,-0.411 0.385,-0.422 0.372,-0.431C0.359,-0.439 0.341,-0.443 0.32,-0.443L0.282,-0.443C0.257,-0.443 0.239,-0.439 0.228,-0.431C0.217,-0.422 0.211,-0.41 0.211,-0.393C0.211,-0.378 0.216,-0.366 0.227,-0.358C0.237,-0.35 0.253,-0.344 0.276,-0.341L0.345,-0.332C0.414,-0.323 0.466,-0.306 0.5,-0.28C0.533,-0.254 0.55,-0.215 0.55,-0.164C0.55,-0.108 0.531,-0.065 0.492,-0.035C0.453,-0.005 0.396,0.01 0.321,0.01L0.277,0.01Z" style="fill-rule:nonzero;"/>
            </g>
            <g transform="matrix(38.7631,0,0,38.7631,504.591,935.258)">
                <path d="M0.07,-0L0.07,-0.136L0.26,-0.136L0.26,-0.415L0.095,-0.415L0.095,-0.55L0.4,-0.55L0.4,-0.136L0.56,-0.136L0.56,-0L0.07,-0ZM0.32,-0.637C0.293,-0.637 0.271,-0.644 0.255,-0.658C0.238,-0.672 0.23,-0.691 0.23,-0.715C0.23,-0.739 0.238,-0.758 0.255,-0.772C0.271,-0.786 0.293,-0.793 0.32,-0.793C0.347,-0.793 0.369,-0.786 0.386,-0.772C0.402,-0.758 0.41,-0.739 0.41,-0.715C0.41,-0.691 0.402,-0.672 0.386,-0.658C0.369,-0.644 0.347,-0.637 0.32,-0.637Z" style="fill-rule:nonzero;"/>
            </g>
            <g transform="matrix(38.7631,0,0,38.7631,527.849,935.258)">
                <path d="M0.243,0.01C0.188,0.01 0.143,-0.009 0.11,-0.048C0.077,-0.087 0.06,-0.139 0.06,-0.205L0.06,-0.345C0.06,-0.41 0.077,-0.463 0.11,-0.502C0.143,-0.541 0.188,-0.56 0.243,-0.56C0.288,-0.56 0.324,-0.547 0.35,-0.521C0.376,-0.494 0.389,-0.457 0.389,-0.41L0.354,-0.445L0.389,-0.445L0.384,-0.58L0.384,-0.73L0.534,-0.73L0.534,-0L0.389,-0L0.389,-0.105L0.354,-0.105L0.389,-0.14C0.389,-0.093 0.376,-0.056 0.35,-0.03C0.324,-0.003 0.288,0.01 0.243,0.01ZM0.297,-0.12C0.324,-0.12 0.346,-0.128 0.361,-0.144C0.376,-0.159 0.384,-0.181 0.384,-0.21L0.384,-0.34C0.384,-0.369 0.376,-0.391 0.361,-0.407C0.346,-0.422 0.324,-0.43 0.297,-0.43C0.269,-0.43 0.248,-0.422 0.233,-0.407C0.218,-0.391 0.21,-0.369 0.21,-0.34L0.21,-0.21C0.21,-0.181 0.218,-0.159 0.233,-0.144C0.248,-0.128 0.269,-0.12 0.297,-0.12Z" style="fill-rule:nonzero;"/>
            </g>
            <g transform="matrix(38.7631,0,0,38.7631,551.106,935.258)">
                <path d="M0.301,0.01C0.252,0.01 0.21,0.001 0.174,-0.018C0.137,-0.036 0.109,-0.062 0.09,-0.095C0.07,-0.128 0.06,-0.166 0.06,-0.21L0.06,-0.34C0.06,-0.384 0.07,-0.423 0.09,-0.456C0.109,-0.489 0.137,-0.514 0.174,-0.533C0.21,-0.551 0.252,-0.56 0.301,-0.56C0.35,-0.56 0.392,-0.551 0.428,-0.533C0.463,-0.514 0.491,-0.489 0.511,-0.456C0.53,-0.423 0.54,-0.384 0.54,-0.34L0.54,-0.24L0.203,-0.24L0.203,-0.21C0.203,-0.175 0.211,-0.149 0.228,-0.132C0.245,-0.114 0.27,-0.105 0.303,-0.105C0.326,-0.105 0.345,-0.109 0.36,-0.117C0.374,-0.125 0.383,-0.136 0.388,-0.15L0.535,-0.15C0.523,-0.102 0.496,-0.063 0.454,-0.034C0.411,-0.005 0.36,0.01 0.301,0.01ZM0.397,-0.317L0.397,-0.342C0.397,-0.376 0.389,-0.402 0.374,-0.42C0.358,-0.438 0.334,-0.447 0.301,-0.447C0.268,-0.447 0.244,-0.438 0.228,-0.419C0.211,-0.4 0.203,-0.374 0.203,-0.34L0.203,-0.325L0.407,-0.327L0.397,-0.317Z" style="fill-rule:nonzero;"/>
            </g>
            <g transform="matrix(38.7631,0,0,38.7631,574.364,935.258)">
            </g>
            <g transform="matrix(38.7631,0,0,38.7631,597.622,935.258)">
                <path d="M0.07,-0L0.07,-0.136L0.26,-0.136L0.26,-0.415L0.095,-0.415L0.095,-0.55L0.4,-0.55L0.4,-0.136L0.56,-0.136L0.56,-0L0.07,-0ZM0.32,-0.637C0.293,-0.637 0.271,-0.644 0.255,-0.658C0.238,-0.672 0.23,-0.691 0.23,-0.715C0.23,-0.739 0.238,-0.758 0.255,-0.772C0.271,-0.786 0.293,-0.793 0.32,-0.793C0.347,-0.793 0.369,-0.786 0.386,-0.772C0.402,-0.758 0.41,-0.739 0.41,-0.715C0.41,-0.691 0.402,-0.672 0.386,-0.658C0.369,-0.644 0.347,-0.637 0.32,-0.637Z" style="fill-rule:nonzero;"/>
            </g>
            <g transform="matrix(38.7631,0,0,38.7631,620.879,935.258)">
            </g>
        </g>
        <g transform="matrix(0.456043,-0.456043,0.456043,0.456043,-6.01975,215.478)">
            <g transform="matrix(38.7631,0,0,38.7631,481.334,935.258)">
                <path d="M0.277,0.01C0.232,0.01 0.192,0.003 0.158,-0.012C0.124,-0.026 0.097,-0.046 0.079,-0.071C0.059,-0.096 0.05,-0.126 0.05,-0.16L0.2,-0.16C0.2,-0.144 0.207,-0.131 0.222,-0.122C0.236,-0.112 0.254,-0.107 0.277,-0.107L0.321,-0.107C0.348,-0.107 0.369,-0.112 0.384,-0.122C0.398,-0.132 0.405,-0.146 0.405,-0.164C0.405,-0.181 0.399,-0.194 0.386,-0.203C0.373,-0.212 0.354,-0.218 0.327,-0.221L0.263,-0.229C0.194,-0.238 0.144,-0.254 0.113,-0.279C0.082,-0.304 0.066,-0.341 0.066,-0.392C0.066,-0.445 0.084,-0.487 0.121,-0.516C0.158,-0.545 0.211,-0.56 0.282,-0.56L0.32,-0.56C0.387,-0.56 0.441,-0.545 0.481,-0.516C0.521,-0.487 0.541,-0.447 0.541,-0.398L0.391,-0.398C0.391,-0.411 0.385,-0.422 0.372,-0.431C0.359,-0.439 0.341,-0.443 0.32,-0.443L0.282,-0.443C0.257,-0.443 0.239,-0.439 0.228,-0.431C0.217,-0.422 0.211,-0.41 0.211,-0.393C0.211,-0.378 0.216,-0.366 0.227,-0.358C0.237,-0.35 0.253,-0.344 0.276,-0.341L0.345,-0.332C0.414,-0.323 0.466,-0.306 0.5,-0.28C0.533,-0.254 0.55,-0.215 0.55,-0.164C0.55,-0.108 0.531,-0.065 0.492,-0.035C0.453,-0.005 0.396,0.01 0.321,0.01L0.277,0.01Z" style="fill-rule:nonzero;"/>
            </g>
            <g transform="matrix(38.7631,0,0,38.7631,504.591,935.258)">
                <path d="M0.07,-0L0.07,-0.136L0.26,-0.136L0.26,-0.415L0.095,-0.415L0.095,-0.55L0.4,-0.55L0.4,-0.136L0.56,-0.136L0.56,-0L0.07,-0ZM0.32,-0.637C0.293,-0.637 0.271,-0.644 0.255,-0.658C0.238,-0.672 0.23,-0.691 0.23,-0.715C0.23,-0.739 0.238,-0.758 0.255,-0.772C0.271,-0.786 0.293,-0.793 0.32,-0.793C0.347,-0.793 0.369,-0.786 0.386,-0.772C0.402,-0.758 0.41,-0.739 0.41,-0.715C0.41,-0.691 0.402,-0.672 0.386,-0.658C0.369,-0.644 0.347,-0.637 0.32,-0.637Z" style="fill-rule:nonzero;"/>
            </g>
            <g transform="matrix(38.7631,0,0,38.7631,527.849,935.258)">
                <path d="M0.243,0.01C0.188,0.01 0.143,-0.009 0.11,-0.048C0.077,-0.087 0.06,-0.139 0.06,-0.205L0.06,-0.345C0.06,-0.41 0.077,-0.463 0.11,-0.502C0.143,-0.541 0.188,-0.56 0.243,-0.56C0.288,-0.56 0.324,-0.547 0.35,-0.521C0.376,-0.494 0.389,-0.457 0.389,-0.41L0.354,-0.445L0.389,-0.445L0.384,-0.58L0.384,-0.73L0.534,-0.73L0.534,-0L0.389,-0L0.389,-0.105L0.354,-0.105L0.389,-0.14C0.389,-0.093 0.376,-0.056 0.35,-0.03C0.324,-0.003 0.288,0.01 0.243,0.01ZM0.297,-0.12C0.324,-0.12 0.346,-0.128 0.361,-0.144C0.376,-0.159 0.384,-0.181 0.384,-0.21L0.384,-0.34C0.384,-0.369 0.376,-0.391 0.361,-0.407C0.346,-0.422 0.324,-0.43 0.297,-0.43C0.269,-0.43 0.248,-0.422 0.233,-0.407C0.218,-0.391 0.21,-0.369 0.21,-0.34L0.21,-0.21C0.21,-0.181 0.218,-0.159 0.233,-0.144C0.248,-0.128 0.269,-0.12 0.297,-0.12Z" style="fill-rule:nonzero;"/>
            </g>
            <g transform="matrix(38.7631,0,0,38.7631,551.106,935.258)">
                <path d="M0.301,0.01C0.252,0.01 0.21,0.001 0.174,-0.018C0.137,-0.036 0.109,-0.062 0.09,-0.095C0.07,-0.128 0.06,-0.166 0.06,-0.21L0.06,-0.34C0.06,-0.384 0.07,-0.423 0.09,-0.456C0.109,-0.489 0.137,-0.514 0.174,-0.533C0.21,-0.551 0.252,-0.56 0.301,-0.56C0.35,-0.56 0.392,-0.551 0.428,-0.533C0.463,-0.514 0.491,-0.489 0.511,-0.456C0.53,-0.423 0.54,-0.384 0.54,-0.34L0.54,-0.24L0.203,-0.24L0.203,-0.21C0.203,-0.175 0.211,-0.149 0.228,-0.132C0.245,-0.114 0.27,-0.105 0.303,-0.105C0.326,-0.105 0.345,-0.109 0.36,-0.117C0.374,-0.125 0.383,-0.136 0.388,-0.15L0.535,-0.15C0.523,-0.102 0.496,-0.063 0.454,-0.034C0.411,-0.005 0.36,0.01 0.301,0.01ZM0.397,-0.317L0.397,-0.342C0.397,-0.376 0.389,-0.402 0.374,-0.42C0.358,-0.438 0.334,-0.447 0.301,-0.447C0.268,-0.447 0.244,-0.438 0.228,-0.419C0.211,-0.4 0.203,-0.374 0.203,-0.34L0.203,-0.325L0.407,-0.327L0.397,-0.317Z" style="fill-rule:nonzero;"/>
            </g>
            <g transform="matrix(38.7631,0,0,38.7631,574.364,935.258)">
            </g>
            <g transform="matrix(38.7631,0,0,38.7631,597.622,935.258)">
                <path d="M0.08,0.18L0.08,0.04L0.24,0.04C0.267,0.04 0.288,0.033 0.303,0.018C0.318,0.003 0.325,-0.018 0.325,-0.045L0.325,-0.41L0.11,-0.41L0.11,-0.55L0.475,-0.55L0.475,-0.04C0.475,0.028 0.455,0.082 0.415,0.121C0.375,0.16 0.32,0.18 0.251,0.18L0.08,0.18ZM0.395,-0.637C0.368,-0.637 0.346,-0.644 0.33,-0.658C0.313,-0.672 0.305,-0.691 0.305,-0.715C0.305,-0.739 0.313,-0.758 0.33,-0.772C0.346,-0.786 0.368,-0.793 0.395,-0.793C0.422,-0.793 0.444,-0.786 0.461,-0.772C0.477,-0.758 0.485,-0.739 0.485,-0.715C0.485,-0.691 0.477,-0.672 0.461,-0.658C0.444,-0.644 0.422,-0.637 0.395,-0.637Z" style="fill-rule:nonzero;"/>
            </g>
            <g transform="matrix(38.7631,0,0,38.7631,620.879,935.258)">
            </g>
        </g>
        <g transform="matrix(0.596149,0.246085,-0.246085,0.596149,272.693,-525.645)">
            <g transform="matrix(38.7631,0,0,38.7631,481.334,935.258)">
                <path d="M0.066,-0L0.066,-0.55L0.211,-0.55L0.211,-0.445L0.255,-0.445L0.211,-0.41C0.211,-0.457 0.224,-0.493 0.251,-0.52C0.278,-0.547 0.314,-0.56 0.359,-0.56C0.412,-0.56 0.455,-0.541 0.488,-0.504C0.52,-0.467 0.536,-0.417 0.536,-0.355L0.536,-0L0.386,-0L0.386,-0.34C0.386,-0.369 0.379,-0.391 0.364,-0.407C0.349,-0.422 0.327,-0.43 0.3,-0.43C0.273,-0.43 0.253,-0.422 0.238,-0.407C0.223,-0.391 0.216,-0.369 0.216,-0.34L0.216,-0L0.066,-0Z" style="fill-rule:nonzero;"/>
            </g>
            <g transform="matrix(38.7631,0,0,38.7631,504.591,935.258)">
                <path d="M0.301,0.01C0.252,0.01 0.21,0.001 0.174,-0.018C0.137,-0.036 0.109,-0.062 0.09,-0.095C0.07,-0.128 0.06,-0.166 0.06,-0.21L0.06,-0.34C0.06,-0.384 0.07,-0.423 0.09,-0.456C0.109,-0.489 0.137,-0.514 0.174,-0.533C0.21,-0.551 0.252,-0.56 0.301,-0.56C0.35,-0.56 0.392,-0.551 0.428,-0.533C0.463,-0.514 0.491,-0.489 0.511,-0.456C0.53,-0.423 0.54,-0.384 0.54,-0.34L0.54,-0.24L0.203,-0.24L0.203,-0.21C0.203,-0.175 0.211,-0.149 0.228,-0.132C0.245,-0.114 0.27,-0.105 0.303,-0.105C0.326,-0.105 0.345,-0.109 0.36,-0.117C0.374,-0.125 0.383,-0.136 0.388,-0.15L0.535,-0.15C0.523,-0.102 0.496,-0.063 0.454,-0.034C0.411,-0.005 0.36,0.01 0.301,0.01ZM0.397,-0.317L0.397,-0.342C0.397,-0.376 0.389,-0.402 0.374,-0.42C0.358,-0.438 0.334,-0.447 0.301,-0.447C0.268,-0.447 0.244,-0.438 0.228,-0.419C0.211,-0.4 0.203,-0.374 0.203,-0.34L0.203,-0.325L0.407,-0.327L0.397,-0.317Z" style="fill-rule:nonzero;"/>
            </g>
            <g transform="matrix(38.7631,0,0,38.7631,527.849,935.258)">
                <path d="M0.09,-0L0.01,-0.55L0.13,-0.55L0.17,-0.25C0.173,-0.228 0.176,-0.203 0.179,-0.175C0.181,-0.147 0.183,-0.124 0.184,-0.106C0.186,-0.124 0.189,-0.147 0.193,-0.175C0.196,-0.202 0.2,-0.227 0.203,-0.25L0.249,-0.55L0.353,-0.55L0.397,-0.25C0.4,-0.227 0.404,-0.202 0.408,-0.174C0.411,-0.146 0.414,-0.123 0.416,-0.105C0.417,-0.124 0.42,-0.147 0.423,-0.176C0.426,-0.204 0.428,-0.229 0.431,-0.25L0.473,-0.55L0.59,-0.55L0.509,-0L0.359,-0L0.318,-0.31C0.315,-0.329 0.312,-0.351 0.309,-0.377C0.306,-0.403 0.303,-0.425 0.301,-0.442C0.298,-0.425 0.295,-0.403 0.292,-0.377C0.289,-0.351 0.286,-0.329 0.283,-0.31L0.241,-0L0.09,-0Z" style="fill-rule:nonzero;"/>
            </g>
            <g transform="matrix(38.7631,0,0,38.7631,551.106,935.258)">
            </g>
            <g transform="matrix(38.7631,0,0,38.7631,574.364,935.258)">
                <path d="M0.066,-0L0.066,-0.73L0.216,-0.73L0.216,-0.55L0.211,-0.445L0.255,-0.445L0.211,-0.41C0.211,-0.457 0.224,-0.493 0.251,-0.52C0.278,-0.547 0.314,-0.56 0.359,-0.56C0.412,-0.56 0.455,-0.541 0.488,-0.504C0.52,-0.467 0.536,-0.417 0.536,-0.355L0.536,-0L0.386,-0L0.386,-0.34C0.386,-0.369 0.379,-0.391 0.364,-0.407C0.349,-0.422 0.327,-0.43 0.3,-0.43C0.273,-0.43 0.253,-0.422 0.238,-0.407C0.223,-0.391 0.216,-0.369 0.216,-0.34L0.216,-0L0.066,-0Z" style="fill-rule:nonzero;"/>
            </g>
            <g transform="matrix(38.7631,0,0,38.7631,597.622,935.258)">
                <path d="M0.157,0.18L0.232,-0.027L0.026,-0.55L0.189,-0.55L0.272,-0.31C0.278,-0.292 0.284,-0.27 0.291,-0.245C0.297,-0.219 0.302,-0.198 0.305,-0.182C0.308,-0.198 0.313,-0.219 0.32,-0.245C0.326,-0.27 0.332,-0.292 0.338,-0.31L0.418,-0.55L0.574,-0.55L0.314,0.18L0.157,0.18Z" style="fill-rule:nonzero;"/>
            </g>
            <g transform="matrix(38.7631,0,0,38.7631,620.879,935.258)">
                <path d="M0.066,0.18L0.066,-0.55L0.211,-0.55L0.211,-0.445L0.246,-0.445L0.211,-0.41C0.211,-0.457 0.224,-0.494 0.25,-0.521C0.276,-0.547 0.312,-0.56 0.357,-0.56C0.412,-0.56 0.457,-0.541 0.49,-0.502C0.523,-0.463 0.54,-0.41 0.54,-0.345L0.54,-0.205C0.54,-0.162 0.533,-0.124 0.518,-0.092C0.502,-0.059 0.481,-0.034 0.454,-0.017C0.427,0.001 0.394,0.01 0.357,0.01C0.312,0.01 0.276,-0.003 0.25,-0.03C0.224,-0.056 0.211,-0.093 0.211,-0.14L0.246,-0.105L0.211,-0.105L0.216,0.03L0.216,0.18L0.066,0.18ZM0.303,-0.12C0.331,-0.12 0.353,-0.128 0.368,-0.144C0.383,-0.159 0.39,-0.181 0.39,-0.21L0.39,-0.34C0.39,-0.369 0.383,-0.392 0.368,-0.407C0.353,-0.422 0.331,-0.43 0.303,-0.43C0.276,-0.43 0.254,-0.422 0.239,-0.407C0.224,-0.391 0.216,-0.369 0.216,-0.34L0.216,-0.21C0.216,-0.181 0.224,-0.159 0.239,-0.144C0.254,-0.128 0.276,-0.12 0.303,-0.12Z" style="fill-rule:nonzero;"/>
            </g>
            <g transform="matrix(38.7631,0,0,38.7631,644.137,935.258)">
                <path d="M0.3,0.01C0.251,0.01 0.209,0.001 0.173,-0.018C0.137,-0.036 0.109,-0.062 0.09,-0.095C0.07,-0.128 0.06,-0.166 0.06,-0.21L0.06,-0.34C0.06,-0.384 0.07,-0.423 0.09,-0.456C0.109,-0.489 0.137,-0.514 0.173,-0.533C0.209,-0.551 0.251,-0.56 0.3,-0.56C0.349,-0.56 0.392,-0.551 0.428,-0.533C0.463,-0.514 0.491,-0.489 0.511,-0.456C0.53,-0.423 0.54,-0.384 0.54,-0.34L0.54,-0.21C0.54,-0.166 0.53,-0.128 0.511,-0.095C0.491,-0.062 0.463,-0.036 0.428,-0.018C0.392,0.001 0.349,0.01 0.3,0.01ZM0.3,-0.12C0.329,-0.12 0.352,-0.128 0.367,-0.144C0.382,-0.159 0.39,-0.181 0.39,-0.21L0.39,-0.34C0.39,-0.369 0.382,-0.392 0.367,-0.407C0.352,-0.422 0.329,-0.43 0.3,-0.43C0.271,-0.43 0.249,-0.422 0.234,-0.407C0.218,-0.392 0.21,-0.369 0.21,-0.34L0.21,-0.21C0.21,-0.181 0.218,-0.159 0.234,-0.144C0.249,-0.128 0.271,-0.12 0.3,-0.12Z" style="fill-rule:nonzero;"/>
            </g>
            <g transform="matrix(38.7631,0,0,38.7631,667.394,935.258)">
                <path d="M0.36,-0C0.304,-0 0.26,-0.016 0.228,-0.048C0.196,-0.08 0.18,-0.124 0.18,-0.18L0.18,-0.415L0.035,-0.415L0.035,-0.55L0.18,-0.55L0.18,-0.705L0.33,-0.705L0.33,-0.55L0.535,-0.55L0.535,-0.415L0.33,-0.415L0.33,-0.18C0.33,-0.15 0.345,-0.135 0.375,-0.135L0.525,-0.135L0.525,-0L0.36,-0Z" style="fill-rule:nonzero;"/>
            </g>
            <g transform="matrix(38.7631,0,0,38.7631,690.652,935.258)">
                <path d="M0.301,0.01C0.252,0.01 0.21,0.001 0.174,-0.018C0.137,-0.036 0.109,-0.062 0.09,-0.095C0.07,-0.128 0.06,-0.166 0.06,-0.21L0.06,-0.34C0.06,-0.384 0.07,-0.423 0.09,-0.456C0.109,-0.489 0.137,-0.514 0.174,-0.533C0.21,-0.551 0.252,-0.56 0.301,-0.56C0.35,-0.56 0.392,-0.551 0.428,-0.533C0.463,-0.514 0.491,-0.489 0.511,-0.456C0.53,-0.423 0.54,-0.384 0.54,-0.34L0.54,-0.24L0.203,-0.24L0.203,-0.21C0.203,-0.175 0.211,-0.149 0.228,-0.132C0.245,-0.114 0.27,-0.105 0.303,-0.105C0.326,-0.105 0.345,-0.109 0.36,-0.117C0.374,-0.125 0.383,-0.136 0.388,-0.15L0.535,-0.15C0.523,-0.102 0.496,-0.063 0.454,-0.034C0.411,-0.005 0.36,0.01 0.301,0.01ZM0.397,-0.317L0.397,-0.342C0.397,-0.376 0.389,-0.402 0.374,-0.42C0.358,-0.438 0.334,-0.447 0.301,-0.447C0.268,-0.447 0.244,-0.438 0.228,-0.419C0.211,-0.4 0.203,-0.374 0.203,-0.34L0.203,-0.325L0.407,-0.327L0.397,-0.317Z" style="fill-rule:nonzero;"/>
            </g>
            <g transform="matrix(38.7631,0,0,38.7631,713.909,935.258)">
                <path d="M0.066,-0L0.066,-0.55L0.211,-0.55L0.211,-0.445L0.255,-0.445L0.211,-0.41C0.211,-0.457 0.224,-0.493 0.251,-0.52C0.278,-0.547 0.314,-0.56 0.359,-0.56C0.412,-0.56 0.455,-0.541 0.488,-0.504C0.52,-0.467 0.536,-0.417 0.536,-0.355L0.536,-0L0.386,-0L0.386,-0.34C0.386,-0.369 0.379,-0.391 0.364,-0.407C0.349,-0.422 0.327,-0.43 0.3,-0.43C0.273,-0.43 0.253,-0.422 0.238,-0.407C0.223,-0.391 0.216,-0.369 0.216,-0.34L0.216,-0L0.066,-0Z" style="fill-rule:nonzero;"/>
            </g>
            <g transform="matrix(38.7631,0,0,38.7631,737.167,935.258)">
                <path d="M0.3,0.01C0.226,0.01 0.168,-0.01 0.127,-0.05C0.085,-0.09 0.064,-0.145 0.064,-0.214L0.064,-0.55L0.214,-0.55L0.214,-0.215C0.214,-0.184 0.221,-0.161 0.236,-0.145C0.251,-0.128 0.272,-0.12 0.3,-0.12C0.327,-0.12 0.349,-0.128 0.364,-0.145C0.379,-0.161 0.386,-0.184 0.386,-0.215L0.386,-0.55L0.536,-0.55L0.536,-0.214C0.536,-0.144 0.515,-0.089 0.473,-0.05C0.431,-0.01 0.373,0.01 0.3,0.01Z" style="fill-rule:nonzero;"/>
            </g>
            <g transform="matrix(38.7631,0,0,38.7631,760.424,935.258)">
                <path d="M0.277,0.01C0.232,0.01 0.192,0.003 0.158,-0.012C0.124,-0.026 0.097,-0.046 0.079,-0.071C0.059,-0.096 0.05,-0.126 0.05,-0.16L0.2,-0.16C0.2,-0.144 0.207,-0.131 0.222,-0.122C0.236,-0.112 0.254,-0.107 0.277,-0.107L0.321,-0.107C0.348,-0.107 0.369,-0.112 0.384,-0.122C0.398,-0.132 0.405,-0.146 0.405,-0.164C0.405,-0.181 0.399,-0.194 0.386,-0.203C0.373,-0.212 0.354,-0.218 0.327,-0.221L0.263,-0.229C0.194,-0.238 0.144,-0.254 0.113,-0.279C0.082,-0.304 0.066,-0.341 0.066,-0.392C0.066,-0.445 0.084,-0.487 0.121,-0.516C0.158,-0.545 0.211,-0.56 0.282,-0.56L0.32,-0.56C0.387,-0.56 0.441,-0.545 0.481,-0.516C0.521,-0.487 0.541,-0.447 0.541,-0.398L0.391,-0.398C0.391,-0.411 0.385,-0.422 0.372,-0.431C0.359,-0.439 0.341,-0.443 0.32,-0.443L0.282,-0.443C0.257,-0.443 0.239,-0.439 0.228,-0.431C0.217,-0.422 0.211,-0.41 0.211,-0.393C0.211,-0.378 0.216,-0.366 0.227,-0.358C0.237,-0.35 0.253,-0.344 0.276,-0.341L0.345,-0.332C0.414,-0.323 0.466,-0.306 0.5,-0.28C0.533,-0.254 0.55,-0.215 0.55,-0.164C0.55,-0.108 0.531,-0.065 0.492,-0.035C0.453,-0.005 0.396,0.01 0.321,0.01L0.277,0.01Z" style="fill-rule:nonzero;"/>
            </g>
            <g transform="matrix(38.7631,0,0,38.7631,783.682,935.258)">
                <path d="M0.301,0.01C0.252,0.01 0.21,0.001 0.174,-0.018C0.137,-0.036 0.109,-0.062 0.09,-0.095C0.07,-0.128 0.06,-0.166 0.06,-0.21L0.06,-0.34C0.06,-0.384 0.07,-0.423 0.09,-0.456C0.109,-0.489 0.137,-0.514 0.174,-0.533C0.21,-0.551 0.252,-0.56 0.301,-0.56C0.35,-0.56 0.392,-0.551 0.428,-0.533C0.463,-0.514 0.491,-0.489 0.511,-0.456C0.53,-0.423 0.54,-0.384 0.54,-0.34L0.54,-0.24L0.203,-0.24L0.203,-0.21C0.203,-0.175 0.211,-0.149 0.228,-0.132C0.245,-0.114 0.27,-0.105 0.303,-0.105C0.326,-0.105 0.345,-0.109 0.36,-0.117C0.374,-0.125 0.383,-0.136 0.388,-0.15L0.535,-0.15C0.523,-0.102 0.496,-0.063 0.454,-0.034C0.411,-0.005 0.36,0.01 0.301,0.01ZM0.397,-0.317L0.397,-0.342C0.397,-0.376 0.389,-0.402 0.374,-0.42C0.358,-0.438 0.334,-0.447 0.301,-0.447C0.268,-0.447 0.244,-0.438 0.228,-0.419C0.211,-0.4 0.203,-0.374 0.203,-0.34L0.203,-0.325L0.407,-0.327L0.397,-0.317Z" style="fill-rule:nonzero;"/>
            </g>
            <g transform="matrix(38.7631,0,0,38.7631,806.939,935.258)">
            </g>
        </g>
        <g transform="matrix(3.94913e-17,-0.644943,0.644943,3.94913e-17,-528.681,885.244)">
            <g transform="matrix(38.7631,0,0,38.7631,481.334,935.258)">
                <path d="M0.39,-0C0.351,-0 0.317,-0.008 0.288,-0.025C0.259,-0.041 0.236,-0.064 0.22,-0.093C0.203,-0.122 0.195,-0.156 0.195,-0.195L0.195,-0.595L0.025,-0.595L0.025,-0.73L0.345,-0.73L0.345,-0.195C0.345,-0.177 0.351,-0.163 0.362,-0.152C0.373,-0.14 0.387,-0.135 0.405,-0.135L0.565,-0.135L0.565,-0L0.39,-0Z" style="fill-rule:nonzero;"/>
            </g>
            <g transform="matrix(38.7631,0,0,38.7631,504.591,935.258)">
                <path d="M0.301,0.01C0.252,0.01 0.21,0.001 0.174,-0.018C0.137,-0.036 0.109,-0.062 0.09,-0.095C0.07,-0.128 0.06,-0.166 0.06,-0.21L0.06,-0.34C0.06,-0.384 0.07,-0.423 0.09,-0.456C0.109,-0.489 0.137,-0.514 0.174,-0.533C0.21,-0.551 0.252,-0.56 0.301,-0.56C0.35,-0.56 0.392,-0.551 0.428,-0.533C0.463,-0.514 0.491,-0.489 0.511,-0.456C0.53,-0.423 0.54,-0.384 0.54,-0.34L0.54,-0.24L0.203,-0.24L0.203,-0.21C0.203,-0.175 0.211,-0.149 0.228,-0.132C0.245,-0.114 0.27,-0.105 0.303,-0.105C0.326,-0.105 0.345,-0.109 0.36,-0.117C0.374,-0.125 0.383,-0.136 0.388,-0.15L0.535,-0.15C0.523,-0.102 0.496,-0.063 0.454,-0.034C0.411,-0.005 0.36,0.01 0.301,0.01ZM0.397,-0.317L0.397,-0.342C0.397,-0.376 0.389,-0.402 0.374,-0.42C0.358,-0.438 0.334,-0.447 0.301,-0.447C0.268,-0.447 0.244,-0.438 0.228,-0.419C0.211,-0.4 0.203,-0.374 0.203,-0.34L0.203,-0.325L0.407,-0.327L0.397,-0.317Z" style="fill-rule:nonzero;"/>
            </g>
            <g transform="matrix(38.7631,0,0,38.7631,527.849,935.258)">
                <path d="M0.066,-0L0.066,-0.55L0.211,-0.55L0.211,-0.445L0.255,-0.445L0.211,-0.41C0.211,-0.457 0.224,-0.493 0.251,-0.52C0.278,-0.547 0.314,-0.56 0.359,-0.56C0.412,-0.56 0.455,-0.541 0.488,-0.504C0.52,-0.467 0.536,-0.417 0.536,-0.355L0.536,-0L0.386,-0L0.386,-0.34C0.386,-0.369 0.379,-0.391 0.364,-0.407C0.349,-0.422 0.327,-0.43 0.3,-0.43C0.273,-0.43 0.253,-0.422 0.238,-0.407C0.223,-0.391 0.216,-0.369 0.216,-0.34L0.216,-0L0.066,-0Z" style="fill-rule:nonzero;"/>
            </g>
            <g transform="matrix(38.7631,0,0,38.7631,551.106,935.258)">
                <path d="M0.145,0.18L0.145,0.06L0.3,0.06C0.328,0.06 0.349,0.053 0.365,0.039C0.38,0.025 0.387,0.006 0.387,-0.019L0.387,-0.04L0.389,-0.145L0.354,-0.145L0.389,-0.18C0.389,-0.133 0.376,-0.096 0.35,-0.07C0.324,-0.043 0.288,-0.03 0.243,-0.03C0.188,-0.03 0.143,-0.049 0.11,-0.088C0.077,-0.127 0.06,-0.179 0.06,-0.245L0.06,-0.345C0.06,-0.41 0.077,-0.463 0.11,-0.502C0.143,-0.541 0.188,-0.56 0.243,-0.56C0.288,-0.56 0.324,-0.547 0.35,-0.521C0.376,-0.494 0.389,-0.457 0.389,-0.41L0.354,-0.445L0.389,-0.445L0.384,-0.55L0.534,-0.55L0.534,-0.014C0.534,0.046 0.514,0.093 0.473,0.128C0.432,0.163 0.376,0.18 0.305,0.18L0.145,0.18ZM0.297,-0.16C0.324,-0.16 0.346,-0.168 0.361,-0.184C0.376,-0.199 0.384,-0.221 0.384,-0.25L0.384,-0.34C0.384,-0.369 0.376,-0.391 0.361,-0.407C0.346,-0.422 0.324,-0.43 0.297,-0.43C0.269,-0.43 0.248,-0.422 0.233,-0.407C0.218,-0.391 0.21,-0.369 0.21,-0.34L0.21,-0.25C0.21,-0.221 0.218,-0.199 0.233,-0.184C0.248,-0.168 0.269,-0.16 0.297,-0.16Z" style="fill-rule:nonzero;"/>
            </g>
            <g transform="matrix(38.7631,0,0,38.7631,574.364,935.258)">
                <path d="M0.36,-0C0.304,-0 0.26,-0.016 0.228,-0.048C0.196,-0.08 0.18,-0.124 0.18,-0.18L0.18,-0.415L0.035,-0.415L0.035,-0.55L0.18,-0.55L0.18,-0.705L0.33,-0.705L0.33,-0.55L0.535,-0.55L0.535,-0.415L0.33,-0.415L0.33,-0.18C0.33,-0.15 0.345,-0.135 0.375,-0.135L0.525,-0.135L0.525,-0L0.36,-0Z" style="fill-rule:nonzero;"/>
            </g>
            <g transform="matrix(38.7631,0,0,38.7631,597.622,935.258)">
                <path d="M0.066,-0L0.066,-0.73L0.216,-0.73L0.216,-0.55L0.211,-0.445L0.255,-0.445L0.211,-0.41C0.211,-0.457 0.224,-0.493 0.251,-0.52C0.278,-0.547 0.314,-0.56 0.359,-0.56C0.412,-0.56 0.455,-0.541 0.488,-0.504C0.52,-0.467 0.536,-0.417 0.536,-0.355L0.536,-0L0.386,-0L0.386,-0.34C0.386,-0.369 0.379,-0.391 0.364,-0.407C0.349,-0.422 0.327,-0.43 0.3,-0.43C0.273,-0.43 0.253,-0.422 0.238,-0.407C0.223,-0.391 0.216,-0.369 0.216,-0.34L0.216,-0L0.066,-0Z" style="fill-rule:nonzero;"/>
            </g>
            <g transform="matrix(38.7631,0,0,38.7631,620.879,935.258)">
            </g>
            <g transform="matrix(38.7631,0,0,38.7631,644.137,935.258)">
                <path d="M0.08,-0.385L0.08,-0.525L0.52,-0.525L0.52,-0.385L0.08,-0.385ZM0.08,-0.135L0.08,-0.275L0.52,-0.275L0.52,-0.135L0.08,-0.135Z" style="fill-rule:nonzero;"/>
            </g>
            <g transform="matrix(38.7631,0,0,38.7631,667.394,935.258)">
            </g>
            <g transform="matrix(38.7631,0,0,38.7631,690.652,935.258)">
                <path d="M0.08,-0L0.08,-0.13L0.264,-0.13L0.264,-0.593L0.078,-0.455L0.078,-0.61L0.249,-0.73L0.414,-0.73L0.414,-0.13L0.56,-0.13L0.56,-0L0.08,-0Z" style="fill-rule:nonzero;"/>
            </g>
            <g transform="matrix(38.7631,0,0,38.7631,713.909,935.258)">
            </g>
        </g>
    </g>
</svg>
